# xmcd CD database file
#
# Track frame offsets:
#	150
#	14022
#	28655
#	43807
#	54840
#	68432
#	83285
#	95545
#	111175
#	124625
#	138937
#	151297
#	165025
#	178945
#	191290
#	204559
#	219184
#	230410
#	243607
#	255087
#
# Disc length: 3595 seconds
#
# Revision: 0
# Processed by: cddbd v1.5.1PL0 Copyright (c) Steve Scherf et al.
# Submitted via: CDex 1.51
#
DISCID=f50e0914
DTITLE=Maysa - 20 Preferidas Maysa
DYEAR=1998
DGENRE=MPB
TTITLE0=Ouca-Maysa
TTITLE1=Adeus-Maysa
TTITLE2=Meu mundo caiu-Maysa
TTITLE3=Quem quiser encontrar o amor-C Lyra e G Vandre
TTITLE4=Quizas, quizas, quizas-Oswaldo Farres
TTITLE5=Raizes-Denis Brean e O. Guilherme
TTITLE6=Besame mucho-Consuelo Velasquez
TTITLE7=Chao de estrelas-S. Caldas e Orestes Barbosa
TTITLE8=Ri-Luis Antonio
TTITLE9=O amor e a rosa-Pernambuco e Ant Maria
TTITLE10=Chora tua tristeza-Oscar Castro Neves e Luvercy Fiorini
TTITLE11=Estou pensando em ti-Raul Sampaio e Benil Santos
TTITLE12=Nos e o mar-Roberto Menescal e Ronaldo Boscoli
TTITLE13=Agua de beber-Jobim e Vinicius
TTITLE14=Meditacao-Jobim e Newton Mendonca
TTITLE15=Algume me disse-Jair Amorim e Evaldo Gouveia
TTITLE16=Cheiro de saudade-Djalma Ferreira e Luis Antonio
TTITLE17=Dindi-Jobim e Aloysio de Oliveira
TTITLE18=A felicidade-Jobim e Vinicius
TTITLE19=Eu nao existo sem voce-Jobim e Vinicius
EXTD=YEAR: 1998
EXTT0=
EXTT1=
EXTT2=
EXTT3=
EXTT4=
EXTT5=
EXTT6=
EXTT7=
EXTT8=
EXTT9=
EXTT10=
EXTT11=
EXTT12=
EXTT13=
EXTT14=
EXTT15=
EXTT16=
EXTT17=
EXTT18=
EXTT19=
PLAYORDER=
